<?xml version="1.0" standalone="no"?>
<!DOCTYPE svg PUBLIC "-//W3C//DTD SVG 20010904//EN"
 "http://www.w3.org/TR/2001/REC-SVG-20010904/DTD/svg10.dtd">
<svg version="1.0" xmlns="http://www.w3.org/2000/svg"
 width="1797.000000pt" height="658.000000pt" viewBox="0 0 1797.000000 658.000000"
 preserveAspectRatio="xMidYMid meet">

<g transform="translate(0.000000,658.000000) scale(0.100000,-0.100000)"
fill="#000000" stroke="none">
<path d="M3830 5414 c-166 -20 -218 -28 -305 -46 -297 -60 -635 -223 -885
-425 -102 -83 -282 -270 -359 -373 -225 -303 -369 -678 -412 -1075 -14 -134
-6 -392 16 -525 110 -653 495 -1227 1055 -1573 469 -289 1023 -368 1605 -230
443 105 852 342 1088 631 68 83 162 241 151 252 -19 18 -308 173 -356 192
-109 41 -234 33 -345 -22 -32 -16 -99 -66 -148 -110 -264 -239 -550 -346 -920
-345 -285 1 -498 69 -733 235 -430 303 -676 883 -612 1445 44 382 190 705 425
941 195 195 406 306 675 355 108 20 381 17 500 -5 256 -47 455 -145 648 -320
79 -72 119 -95 201 -120 73 -21 156 -20 231 3 69 22 370 214 370 237 0 22
-116 186 -187 264 -300 332 -662 521 -1138 595 -96 16 -487 28 -565 19z"/>
<path d="M10245 4634 c-171 -20 -283 -85 -343 -199 -23 -44 -26 -62 -27 -145
0 -191 60 -241 391 -326 202 -52 292 -90 328 -137 73 -97 45 -232 -59 -289
-103 -56 -278 -61 -424 -12 -83 28 -124 50 -188 101 l-41 33 -30 -48 -29 -48
50 -37 c129 -96 249 -131 442 -132 168 0 253 21 332 83 95 76 135 210 100 333
-37 125 -132 184 -403 249 -93 23 -195 53 -227 67 -100 45 -137 108 -123 211
9 69 50 121 121 157 58 29 65 30 190 30 146 -1 196 -15 289 -82 26 -19 52 -31
56 -26 4 4 17 25 29 45 l22 38 -61 39 c-34 22 -86 49 -115 60 -49 18 -197 43
-235 40 -8 -1 -28 -4 -45 -5z"/>
<path d="M12945 4634 c-11 -2 -45 -9 -75 -15 -85 -17 -186 -75 -260 -149 -76
-76 -121 -149 -158 -252 -23 -64 -26 -89 -26 -203 0 -117 3 -138 28 -210 66
-191 202 -332 376 -391 84 -29 264 -26 345 6 172 67 298 199 362 382 35 98 42
244 18 352 -46 209 -209 399 -390 455 -61 19 -184 33 -220 25z m219 -142 c170
-79 286 -267 288 -466 6 -454 -466 -699 -762 -397 -199 204 -201 555 -4 761
95 100 197 142 331 136 66 -3 95 -10 147 -34z"/>
<path d="M5860 4575 l0 -55 220 0 220 0 0 -560 0 -560 60 0 60 0 0 560 0 560
220 0 220 0 0 55 0 55 -500 0 -500 0 0 -55z"/>
<path d="M7032 4238 c4 -366 6 -398 26 -471 29 -106 66 -171 137 -243 93 -94
200 -134 354 -134 268 1 437 146 496 425 11 54 15 154 15 443 l0 372 -54 0
-54 0 -5 -377 c-5 -417 -9 -453 -69 -565 -68 -127 -178 -190 -333 -190 -156 0
-265 63 -334 191 -57 108 -63 156 -68 569 l-5 372 -55 0 -54 0 3 -392z"/>
<path d="M8360 4016 l0 -616 55 0 55 0 0 225 0 225 188 0 187 0 143 -225 144
-225 64 0 c35 0 64 2 64 5 0 2 -63 104 -140 225 -78 121 -143 226 -146 233 -3
8 12 17 42 25 35 10 62 28 109 75 84 84 109 147 109 277 1 87 -2 101 -31 162
-42 89 -101 151 -182 191 l-66 32 -297 3 -298 3 0 -615z m594 490 c94 -39 166
-154 166 -263 0 -115 -58 -221 -143 -262 -40 -19 -60 -21 -275 -21 l-232 0 0
280 0 280 225 0 c169 0 234 -3 259 -14z"/>
<path d="M9490 4015 l0 -615 60 0 60 0 0 615 0 615 -60 0 -60 0 0 -615z"/>
<path d="M10980 4015 l0 -615 55 0 55 0 0 500 c0 275 3 500 8 500 4 0 106
-174 227 -385 l220 -385 39 2 38 3 222 385 221 385 3 -502 2 -503 60 0 60 0 0
615 0 616 -62 -3 -62 -3 -240 -417 c-132 -230 -242 -418 -245 -417 -4 0 -113
189 -244 420 l-238 419 -60 0 -59 0 0 -615z"/>
<path d="M3784 4215 c-325 -48 -623 -187 -874 -407 -123 -109 -125 -112 -144
-208 -52 -263 -35 -566 46 -820 141 -441 480 -793 878 -914 78 -23 219 -51
225 -44 9 9 46 232 54 330 17 191 34 585 27 620 -3 18 -52 126 -107 240 -137
281 -141 325 -40 432 113 119 131 177 131 409 l0 159 228 -4 c263 -5 307 -16
414 -97 33 -25 69 -52 78 -59 20 -15 155 -44 182 -40 17 3 15 10 -23 68 -59
92 -172 198 -258 244 -97 51 -169 74 -281 91 -118 18 -410 18 -536 0z"/>
<path d="M4249 3732 l-56 -48 64 -42 c82 -54 102 -54 149 3 l37 46 -43 44
c-57 58 -79 58 -151 -3z"/>
<path d="M4753 3559 c-249 -52 -444 -165 -602 -349 -77 -89 -81 -120 -21 -173
114 -103 268 -114 449 -32 29 14 57 25 60 25 4 0 1 -39 -6 -87 -20 -127 -19
-129 44 -98 58 29 154 126 197 199 67 115 98 277 81 430 -12 112 -33 121 -202
85z"/>
<path d="M9880 3223 c-172 -26 -341 -139 -429 -287 -62 -103 -83 -178 -88
-306 -8 -199 45 -338 181 -476 123 -123 244 -174 414 -174 345 1 621 300 599
650 -11 167 -75 310 -191 425 -134 133 -313 195 -486 168z m228 -242 c102 -53
182 -173 204 -306 31 -187 -66 -389 -220 -457 -143 -64 -323 -12 -412 117
-151 220 -80 545 143 651 46 22 62 25 147 21 74 -2 104 -8 138 -26z"/>
<path d="M10740 2605 l0 -615 120 0 120 0 0 402 c0 240 4 398 9 392 5 -5 78
-141 162 -302 l153 -293 64 3 64 3 156 300 157 299 3 -402 2 -402 120 0 120 0
0 615 0 615 -128 0 -128 0 -184 -351 -184 -351 -22 44 c-13 24 -94 180 -182
348 l-159 305 -131 3 -132 3 0 -616z"/>
<path d="M12250 2605 l0 -616 363 3 c350 3 364 4 419 26 80 32 139 81 173 143
28 50 30 62 30 149 -1 78 -5 103 -24 142 -30 62 -84 115 -143 143 l-49 23 50
35 c37 27 57 52 83 104 29 60 33 77 33 148 -1 64 -6 91 -26 135 -33 71 -70
114 -128 148 l-46 27 -367 3 -368 3 0 -616z m638 385 c39 -24 62 -73 62 -132
0 -62 -28 -109 -80 -135 -41 -21 -58 -23 -212 -23 l-168 0 0 155 0 155 183 0
c165 0 185 -2 215 -20z m32 -495 c37 -19 69 -72 76 -126 6 -52 -24 -121 -69
-153 -26 -19 -45 -21 -233 -24 l-204 -3 0 160 0 161 200 0 c158 0 207 -3 230
-15z"/>
<path d="M13430 2605 l0 -615 120 0 120 0 0 615 0 615 -120 0 -120 0 0 -615z"/>
<path d="M14045 2619 c-126 -331 -231 -608 -233 -615 -3 -11 21 -14 120 -14
l123 0 54 150 54 150 217 0 217 0 54 -147 55 -148 122 -3 c67 -1 122 1 122 4
0 4 -104 281 -231 616 l-232 608 -106 0 -106 0 -230 -601z m499 -136 l7 -23
-170 0 c-101 0 -171 4 -171 9 0 8 123 350 166 461 4 11 121 -300 168 -447z"/>
<path d="M15615 2898 c-19 -80 -195 -915 -195 -925 0 -10 24 -13 88 -13 l88 0
32 148 c17 81 36 171 43 200 l11 52 177 0 178 0 15 75 15 75 -173 0 c-159 0
-174 1 -174 18 1 9 11 64 23 122 l22 105 216 3 216 2 11 65 c7 35 15 71 18 80
5 13 -29 15 -300 15 l-306 0 -5 -22z"/>
<path d="M16664 2893 c-3 -16 -10 -44 -15 -63 -19 -73 -25 -70 131 -70 77 0
140 -3 140 -8 0 -6 -152 -727 -164 -774 -4 -16 5 -18 87 -18 l92 0 84 400 85
400 143 0 143 0 6 28 c3 15 10 43 15 62 19 76 52 70 -366 70 l-375 0 -6 -27z"/>
<path d="M16365 2898 c-6 -21 -195 -916 -195 -928 0 -6 34 -10 90 -10 50 0 90
4 90 8 0 10 189 901 196 925 5 15 -4 17 -86 17 -64 0 -92 -4 -95 -12z"/>
<path d="M15114 2055 l-21 -95 73 0 72 0 17 78 c9 42 19 85 21 95 5 15 -3 17
-68 17 l-73 0 -21 -95z"/>
</g>
</svg>
